# xmcd CD database file
#
# Track frame offsets:
#	150
#	15090
#	29251
#	43479
#	63842
#	86414
#	108289
#	126794
#	144948
#	165053
#	181028
#	199684
#	215274
#
# Disc length: 3213 seconds
#
# Revision: 0
# Processed by: cddbd v1.4PL0 Copyright (c) Steve Scherf et al.
# Submitted via: CDex 1.50
#
DISCID=970c8b0d
DTITLE=El Simbolo - Exitos
DYEAR=2003
DGENRE=Merengue
TTITLE0=1, 2, 3 (Remix)
TTITLE1=¡Canta!
TTITLE2=¿Que Paso?
TTITLE3=Levantando Las Manos (Remix)
TTITLE4=Parate Y Baila
TTITLE5=Como Te Quiero Mi Amor
TTITLE6=¡Canta! (Remix)
TTITLE7=No Pares
TTITLE8=¿Que Paso? (Remix)
TTITLE9=Nunca Te Decides
TTITLE10=Toda La Noche
TTITLE11=Ven A La Fiesta
TTITLE12=Mega Mix
EXTD=YEAR: 2003
EXTT0=
EXTT1=
EXTT2=
EXTT3=
EXTT4=
EXTT5=
EXTT6=
EXTT7=
EXTT8=
EXTT9=
EXTT10=
EXTT11=
EXTT12=
PLAYORDER=
